<?xml version="1.0" encoding="utf-8"?>
<!-- Generator: Adobe Illustrator 23.0.5, SVG Export Plug-In . SVG Version: 6.00 Build 0)  -->
<svg version="1.1" id="Capa_1" xmlns="http://www.w3.org/2000/svg" xmlns:xlink="http://www.w3.org/1999/xlink" x="0px" y="0px"
	 viewBox="0 0 1848.95 731.6" style="enable-background:new 0 0 1848.95 731.6;" xml:space="preserve">
<style type="text/css">
	.st0{fill:#B62E24;}
	.st1{clip-path:url(#SVGID_2_);fill:#FFFFFF;}
	.st2{clip-path:url(#SVGID_2_);fill:#F7DE3E;}
</style>
<g>
	<rect x="2.13" y="0.01" class="st0" width="1848.95" height="731.6"/>
	<g>
		<defs>
			<rect id="SVGID_1_" x="2.13" width="1848.95" height="731.6"/>
		</defs>
		<clipPath id="SVGID_2_">
			<use xlink:href="#SVGID_1_"  style="overflow:visible;"/>
		</clipPath>
		<path class="st1" d="M1465.43,419.08c0-59.93-42.39-103.16-99.2-103.16c-56.81,0-102.36,46.39-102.36,103.16
			c0,56.75,45.99,103.15,102.81,103.15c27.95,0,58.41-8.77,81.15-29.27c6.53-5.89,9.1-21.52-0.31-31.47
			c-9.12-9.6-23.54-8.61-33.67-1c-11.82,8.86-25.99,15.79-44.93,15.79c-26.6,0-45.98-16.21-48.7-39.63h125.8
			C1456.41,436.66,1465.43,429.43,1465.43,419.08 M1411.77,398.35h-90.62c4.95-22.53,21.18-36.48,45.08-36.48
			C1390.13,361.87,1407.27,377.19,1411.77,398.35"/>
		<path class="st2" d="M1663.59,116.86c-16.36-5.83-48.25-10.54-81.42-10.54c-119.37,0-260.84,87.91-356.22,227.65
			c-48.89,71.63-60.86,107.12-60.86,107.12s2.5-62.99-5.67-103.42c-5.29-26.18-14.41-33.34-28.12-36.81
			c-20.38-5.15-39.68,5.78-50.95,18.24c12.84,11.91,23.4,35.6,26.38,61.67c3.77,33.12,4.31,63.55,4.87,124.45
			c0.1,10.18-1.94,14.04,5.88,14.04h44.23c9.33,0,15.43-3.63,17.87-9.56c17.12-41.54,65.95-142.22,124.91-203.5
			c99.07-102.95,183.74-138.52,274.27-138.52c43.05,0,72.24,5.76,91.04,18.1C1689.33,180.55,1709.94,133.41,1663.59,116.86"/>
		<path class="st1" d="M1689.08,495.66V416.5c0-56.76-41.26-100.59-103.26-100.59c-56.81,0-103.26,46.4-103.26,103.17
			c0,59.77,38.08,103.15,96.5,103.15c26.15,0,50.94-16.21,56.81-29.26c0,17.85,12.18,29.26,26.61,29.26
			c14.88,0,26.61-13.5,26.61-28.37 M1634.51,419.08c0,30.17-19.38,54.5-50.49,54.5c-31.12,0-46.89-24.33-46.89-54.5
			c0-30.19,17.58-54.52,48.7-54.52C1616.93,364.57,1634.51,388.9,1634.51,419.08"/>
		<path class="st1" d="M444.24,495.21V240.23c0-14.87-12.18-27.48-27.06-27.48c-14.88,0-27.5,12.61-27.5,27.48v254.98
			c0,14.87,12.63,27.03,27.5,27.03C432.06,522.23,444.24,510.08,444.24,495.21"/>
		<path class="st1" d="M671.99,495.66V416.5c0-56.76-41.26-100.59-103.26-100.59c-56.81,0-103.25,46.4-103.25,103.17
			c0,59.77,38.08,103.15,96.5,103.15c26.14,0,50.94-16.21,56.81-29.26c0,17.85,12.17,29.26,26.61,29.26
			c14.87,0,26.6-13.5,26.6-28.37 M617.42,419.08c0,30.17-19.38,54.5-50.49,54.5c-31.12,0-46.89-24.33-46.89-54.5
			c0-30.19,17.58-54.52,48.69-54.52C599.84,364.57,617.42,388.9,617.42,419.08"/>
		<path class="st1" d="M868.79,496.17c0-12.16-10.37-22.53-22.54-22.53H766.9l94.23-115c3.61-4.5,5.87-9.91,5.87-15.77
			c0-13.07-10.37-23.87-23.45-23.87h-127.6c-12.17,0-22.55,10.34-22.55,22.53c0,12.16,10.38,22.51,22.55,22.51h77.55l-94.24,115.02
			c-4.05,4.95-5.86,10.82-5.86,17.12c0,11.26,11.27,22.08,22.55,22.53c12.62,0.45,25.71,0,38.79,0h91.52
			C858.42,518.7,868.79,508.33,868.79,496.17"/>
		<path class="st1" d="M1082.63,495.66V416.5c0-56.76-41.26-100.59-103.25-100.59c-56.82,0-103.26,46.4-103.26,103.17
			c0,59.77,38.08,103.15,96.49,103.15c26.16,0,50.95-16.21,56.81-29.26c0,17.85,12.18,29.26,26.6,29.26
			c14.88,0,26.61-13.5,26.61-28.37 M1028.07,419.08c0,30.17-19.38,54.5-50.49,54.5c-31.12,0-46.89-24.33-46.89-54.5
			c0-30.19,17.57-54.52,48.7-54.52C1010.49,364.57,1028.07,388.9,1028.07,419.08"/>
		<path class="st1" d="M368.06,419.07c0-56.77-42.34-103.17-97.76-103.17c-25.23,0-46.4,13.52-55.86,29.29
			c0-18.02-13.96-29.29-25.68-29.29c-14.87,0-27.03,12.61-27.03,27.49v255c0,14.87,12.16,27.03,27.03,27.03
			c14.87,0,27.48-12.16,27.48-27.03V494.31c6.77,13.06,28.83,27.92,54.06,27.92C325.71,522.23,368.06,475.84,368.06,419.07
			 M313.55,419.07c0,30.19-17.56,54.51-48.66,54.51c-31.08,0-48.65-24.32-48.65-54.51c0-30.17,17.57-54.5,48.65-54.5
			C295.99,364.58,313.55,388.9,313.55,419.07"/>
	</g>
</g>
</svg>
